<?xml version="1.0" standalone="no"?>
<!DOCTYPE svg PUBLIC "-//W3C//DTD SVG 20010904//EN"
 "http://www.w3.org/TR/2001/REC-SVG-20010904/DTD/svg10.dtd">
<svg version="1.0" xmlns="http://www.w3.org/2000/svg"
 width="700.000000pt" height="700.000000pt" viewBox="0 0 700.000000 700.000000"
 preserveAspectRatio="xMidYMid meet">
<metadata>
Created by potrace 1.14, written by Peter Selinger 2001-2017
</metadata>
<g transform="translate(0.000000,700.000000) scale(0.100000,-0.100000)"
fill="#000000" stroke="none">
<path d="M1938 6784 c-3 -3 -55 -5 -115 -5 l-108 1 -61 -93 c-97 -146 -136
-216 -128 -228 4 -7 3 -9 -3 -6 -9 6 -54 -75 -54 -98 0 -5 -7 -14 -15 -18 -8
-4 -14 -13 -14 -20 0 -7 -8 -28 -19 -47 -10 -19 -19 -38 -20 -43 0 -4 -15 -37
-31 -75 -17 -37 -29 -75 -26 -85 2 -9 0 -15 -4 -12 -7 4 -25 -36 -35 -75 -1
-3 -5 -12 -8 -20 -19 -46 -93 -293 -103 -345 -2 -11 -6 -31 -9 -45 -3 -14 -8
-41 -11 -60 -4 -19 -9 -44 -11 -55 -13 -57 -23 -128 -18 -133 2 -3 0 -11 -6
-18 -6 -8 -9 -20 -6 -29 4 -8 2 -17 -2 -19 -5 -3 -9 -17 -8 -31 0 -15 4 -22
11 -18 6 4 5 0 -2 -9 -17 -21 -20 -39 -28 -171 -9 -143 -9 -362 0 -452 9 -83
13 -110 16 -110 1 0 3 -11 4 -25 7 -73 39 -209 49 -203 6 4 7 1 2 -6 -8 -13
33 -171 44 -171 4 0 8 -10 8 -22 1 -13 6 -32 12 -43 16 -34 48 -108 61 -142 7
-18 16 -33 21 -33 5 0 8 -3 7 -7 -5 -16 25 -72 35 -66 5 3 7 1 4 -4 -6 -10 18
-71 32 -83 4 -3 12 -16 19 -30 13 -27 86 -141 115 -181 15 -20 19 -22 28 -9 8
12 9 11 4 -6 -4 -15 6 -36 36 -73 22 -28 45 -49 50 -46 5 4 7 0 4 -7 -6 -15
171 -204 186 -200 6 1 8 -1 5 -6 -5 -8 16 -28 136 -131 23 -20 42 -30 50 -25
7 4 10 3 5 -1 -7 -9 20 -45 34 -45 4 0 20 -11 35 -25 15 -14 33 -25 40 -25 7
0 14 -4 16 -9 3 -8 142 -101 151 -101 3 0 35 -18 73 -40 37 -21 71 -37 76 -34
4 3 8 2 8 -3 0 -4 15 -14 33 -22 17 -7 52 -24 77 -36 25 -12 48 -23 52 -24 16
-4 35 -10 93 -31 33 -12 67 -24 75 -25 8 -2 15 -4 15 -5 0 -3 39 -12 58 -13 9
-1 17 -6 17 -11 0 -5 3 -7 6 -3 3 3 18 1 33 -4 35 -14 117 -30 167 -34 23 -1
46 -5 51 -8 14 -9 58 -16 148 -22 84 -7 99 -11 90 -25 -3 -5 -8 -96 -11 -201
-2 -105 -7 -195 -9 -200 -3 -4 -1 -11 5 -14 7 -4 7 -12 2 -18 -5 -7 -10 -30
-11 -52 -1 -22 -4 -52 -5 -67 -2 -16 2 -28 8 -28 7 0 7 -3 1 -8 -12 -8 -11 -4
-19 -110 -8 -114 -26 -265 -31 -271 -3 -2 1 -11 8 -19 9 -13 9 -14 0 -8 -9 5
-13 -1 -14 -21 0 -15 -2 -37 -4 -48 -9 -47 -18 -112 -19 -132 -1 -13 -3 -23
-6 -23 -3 0 -6 -8 -7 -17 -2 -27 -52 -225 -63 -248 -5 -11 -22 -49 -38 -85
-16 -36 -37 -71 -46 -79 -9 -7 -16 -19 -16 -25 0 -6 -16 -21 -36 -34 -20 -13
-32 -27 -28 -34 4 -6 3 -8 -3 -5 -6 4 -31 -4 -55 -18 -49 -29 -235 -90 -302
-100 -26 -4 -46 -10 -46 -14 0 -3 -12 -6 -27 -7 -83 -1 -317 -61 -402 -102
-78 -38 -137 -99 -128 -134 3 -10 1 -16 -4 -12 -5 3 -9 -6 -9 -20 l0 -25 428
-1 c235 -1 432 -1 437 -1 6 0 457 0 1003 1 l992 1 0 24 c0 14 -5 25 -11 25 -5
0 -7 5 -4 11 19 30 -115 153 -146 133 -8 -4 -9 -3 -5 4 4 8 0 12 -11 12 -11 0
-23 4 -29 9 -15 13 -134 43 -150 37 -9 -3 -12 -1 -9 4 6 9 -23 13 -92 14 -12
0 -19 4 -16 10 3 5 -8 7 -25 4 -17 -2 -29 -1 -26 3 4 7 -33 15 -106 24 -8 1
-22 5 -30 8 -8 4 -24 8 -35 10 -11 2 -27 7 -35 10 -12 4 -57 16 -80 21 -3 1
-41 19 -84 40 -95 46 -160 107 -201 191 -17 33 -34 63 -40 67 -5 4 -7 8 -4 8
4 0 -2 28 -13 62 -11 35 -21 72 -24 83 -2 11 -6 31 -10 45 -10 44 -24 114 -30
149 -3 18 -8 43 -11 55 -2 11 -6 35 -8 51 -2 17 -6 44 -9 60 -6 36 -16 121
-21 190 -2 28 -7 68 -10 90 -3 22 -6 64 -6 92 -1 29 -4 51 -8 49 -3 -2 -6 9
-6 25 0 16 4 29 8 29 5 0 5 5 2 10 -6 9 -12 103 -19 296 -1 39 -6 75 -9 81 -4
6 -4 13 0 17 3 3 5 37 4 76 -2 62 0 70 16 71 10 0 36 2 58 4 22 1 59 4 83 6
23 2 42 5 42 8 0 4 12 6 28 6 108 2 491 109 484 135 -1 6 2 8 9 5 15 -10 101
24 93 37 -5 7 -2 8 6 3 10 -6 143 47 160 65 3 3 18 11 33 18 15 7 25 17 22 22
-3 5 0 7 9 4 8 -3 27 3 43 14 15 10 56 37 90 58 35 21 63 42 63 47 0 4 7 7 15
7 8 0 15 5 15 10 0 6 5 10 11 10 15 0 39 26 31 35 -4 4 -2 5 4 3 12 -3 104 59
104 71 0 4 9 12 19 17 35 16 152 134 145 146 -4 6 -3 8 3 5 16 -10 113 100
107 121 -5 13 -4 14 4 3 8 -10 24 4 72 65 74 93 165 228 206 304 16 30 31 57
34 60 16 16 30 52 24 62 -4 6 -3 8 3 5 6 -4 14 3 18 16 10 29 8 26 32 77 39
81 53 122 46 133 -3 5 -2 7 4 4 12 -8 67 168 57 184 -4 8 -3 9 4 5 11 -7 14 1
16 52 1 9 5 20 9 23 4 3 9 21 11 41 2 19 5 39 8 44 10 17 24 112 33 229 4 44
8 94 10 112 2 18 0 35 -6 38 -5 4 -6 12 -2 18 8 13 11 157 3 157 -3 0 -6 48
-7 108 -1 59 -4 118 -7 132 -2 14 -5 38 -5 53 -1 16 -5 26 -11 22 -6 -4 -7 2
-1 17 4 13 4 36 -1 53 -4 16 -9 45 -10 63 -1 17 -5 32 -10 32 -5 0 -7 4 -4 9
5 8 2 30 -20 131 -26 125 -68 280 -76 280 -5 0 -7 4 -4 9 6 9 -6 54 -29 106
-7 17 -16 45 -20 63 -4 17 -10 32 -14 32 -3 0 -8 11 -9 23 -1 13 -8 37 -17 53
-8 16 -15 32 -15 36 0 4 -14 37 -32 75 -18 37 -31 71 -30 75 1 3 -5 12 -13 18
-8 7 -15 18 -15 25 0 22 -31 75 -41 70 -5 -4 -6 1 -3 10 4 8 -2 27 -12 43 -10
15 -27 44 -37 65 -11 20 -23 37 -28 37 -5 0 -8 4 -6 8 4 14 -66 121 -76 115
-6 -3 -7 -1 -3 6 8 12 -38 74 -47 65 -3 -3 -4 3 -3 13 1 17 -13 18 -224 20
-124 1 -229 3 -235 3 -13 1 -99 1 -308 -1 -93 0 -170 1 -172 3 -2 1 -110 1
-240 -2 -130 -3 -238 -3 -240 -1 -2 2 -35 3 -72 3 -269 -3 -405 -3 -408 0 -2
1 -110 1 -240 -2 -130 -3 -238 -3 -240 -1 -2 2 -35 3 -72 3 -269 -3 -405 -3
-408 0 -2 1 -110 1 -240 -2 -130 -3 -239 -2 -244 3 -4 4 -10 5 -13 1z m147
-72 c-3 -3 -11 0 -18 7 -9 10 -8 11 6 5 10 -3 15 -9 12 -12z m960 0 c-3 -3
-11 0 -18 7 -9 10 -8 11 6 5 10 -3 15 -9 12 -12z m960 0 c-3 -3 -11 0 -18 7
-9 10 -8 11 6 5 10 -3 15 -9 12 -12z m960 0 c-3 -3 -11 0 -18 7 -9 10 -8 11 6
5 10 -3 15 -9 12 -12z m-1440 -80 c-3 -3 -11 0 -18 7 -9 10 -8 11 6 5 10 -3
15 -9 12 -12z m-510 -32 c-3 -5 -12 -10 -18 -10 -7 0 -6 4 3 10 19 12 23 12
15 0z m1920 0 c-3 -5 -12 -10 -18 -10 -7 0 -6 4 3 10 19 12 23 12 15 0z
m-3254 -47 c13 -16 12 -17 -3 -4 -10 7 -18 15 -18 17 0 8 8 3 21 -13z m89 3
c-7 -7 -13 -7 -20 0 -6 6 -3 10 10 10 13 0 16 -4 10 -10z m231 -9 c-10 -9 -11
-8 -5 6 3 10 9 15 12 12 3 -3 0 -11 -7 -18z m93 15 c3 -5 -1 -9 -9 -9 -8 0
-15 4 -15 9 0 4 4 8 9 8 6 0 12 -4 15 -8z m1441 -2 c3 -6 -1 -7 -9 -4 -18 7
-21 14 -7 14 6 0 13 -4 16 -10z m386 -13 c-10 -9 -11 -8 -5 6 3 10 9 15 12 12
3 -3 0 -11 -7 -18z m93 15 c3 -5 -1 -9 -9 -9 -8 0 -15 4 -15 9 0 4 4 8 9 8 6
0 12 -4 15 -8z m1237 -39 c13 -16 12 -17 -3 -4 -10 7 -18 15 -18 17 0 8 8 3
21 -13z m160 0 c13 -16 12 -17 -3 -4 -10 7 -18 15 -18 17 0 8 8 3 21 -13z
m-3767 -9 c3 -8 2 -12 -4 -9 -6 3 -10 10 -10 16 0 14 7 11 14 -7z m571 -40
c33 1 65 5 72 9 6 4 14 4 17 -1 6 -10 126 -9 143 1 6 4 14 4 16 0 7 -10 638
-10 655 0 6 5 12 4 12 -1 0 -10 40 -10 57 1 6 4 14 4 16 0 6 -10 828 -10 844
0 6 4 14 4 17 -1 6 -10 126 -9 143 1 6 4 14 4 17 -1 6 -10 126 -9 143 1 6 4
14 4 16 0 7 -11 638 -10 655 1 7 4 11 4 10 -1 -4 -13 74 -123 83 -117 5 3 6
-2 3 -10 -3 -8 3 -23 13 -34 10 -10 19 -25 21 -33 2 -8 11 -25 20 -39 9 -14
33 -58 52 -98 20 -40 39 -70 42 -66 4 3 6 -2 6 -13 -1 -10 7 -39 19 -63 47
-103 63 -140 63 -150 0 -5 4 -10 8 -10 4 0 8 -8 9 -17 2 -23 7 -40 22 -78 7
-16 15 -42 18 -57 3 -16 8 -28 12 -28 3 0 7 -12 8 -27 0 -15 6 -29 12 -31 6
-2 8 -8 5 -13 -3 -5 1 -33 10 -62 8 -29 20 -77 26 -107 6 -30 16 -58 23 -62 9
-6 9 -8 0 -8 -8 0 -9 -9 -2 -32 5 -18 12 -55 15 -83 4 -27 10 -57 14 -65 4 -8
5 -21 3 -28 -3 -7 -2 -20 2 -30 8 -20 11 -70 20 -281 3 -85 8 -158 11 -162 2
-4 -1 -9 -7 -11 -9 -3 -9 -10 1 -27 6 -13 7 -21 2 -17 -7 4 -10 -11 -9 -44 1
-27 -2 -52 -8 -53 -6 -2 -4 -12 5 -22 9 -11 10 -16 3 -11 -9 5 -13 1 -13 -11
0 -10 -3 -36 -7 -57 -5 -31 -3 -37 7 -31 9 5 11 4 6 -4 -4 -6 -11 -9 -15 -6
-11 6 -34 -112 -25 -127 4 -6 3 -8 -3 -5 -10 7 -48 -111 -38 -121 3 -3 -1 -12
-9 -21 -8 -9 -21 -32 -29 -52 -14 -33 -13 -38 1 -55 16 -17 16 -17 0 -5 -15
11 -19 8 -33 -24 -8 -21 -15 -41 -15 -46 0 -5 -5 -9 -11 -9 -5 0 -8 -4 -4 -9
3 -5 0 -13 -6 -16 -5 -4 -8 -14 -5 -22 3 -8 2 -12 -3 -9 -9 6 -48 -73 -43 -89
2 -5 0 -7 -4 -3 -6 7 -74 -96 -74 -113 0 -5 -4 -9 -9 -9 -5 0 -20 -19 -34 -42
-14 -24 -34 -52 -44 -63 -10 -11 -48 -56 -85 -100 -66 -81 -186 -199 -267
-265 -24 -19 -49 -41 -56 -47 -8 -7 -18 -13 -24 -13 -6 0 -11 -4 -11 -8 0 -5
-10 -14 -22 -20 -13 -7 -43 -27 -68 -46 -25 -19 -48 -35 -52 -35 -4 -1 -36
-18 -70 -39 -77 -47 -189 -100 -288 -137 -41 -16 -76 -32 -78 -36 -2 -4 -12
-4 -24 -1 -13 3 -19 1 -15 -5 5 -7 -1 -9 -15 -5 -16 4 -19 2 -13 -8 5 -8 4
-11 -3 -7 -5 4 -57 -4 -114 -18 -56 -13 -116 -26 -133 -29 -16 -2 -32 -5 -35
-6 -3 -1 -18 -3 -35 -4 -16 -2 -33 -4 -37 -5 -5 -1 -29 -3 -55 -3 -27 0 -56
-5 -67 -10 -10 -6 -16 -6 -13 -1 3 4 -45 8 -106 8 -150 1 -247 7 -277 18 -24
8 -91 18 -142 21 -14 0 -24 5 -21 10 4 5 -6 6 -21 2 -18 -4 -25 -3 -21 4 3 5
-3 11 -14 11 -24 2 -30 3 -53 13 -9 4 -23 9 -32 10 -8 1 -19 5 -22 9 -4 4 -18
7 -30 7 -13 0 -26 5 -30 11 -3 6 -15 9 -25 6 -12 -3 -17 -1 -12 6 4 6 -2 8
-15 5 -12 -4 -20 -3 -17 2 3 4 -21 18 -53 31 -31 12 -62 26 -69 31 -7 6 -18 6
-24 2 -8 -5 -9 -3 -4 6 6 10 3 12 -13 8 -12 -4 -20 -3 -17 1 5 8 -44 36 -57
33 -5 -1 -8 2 -8 7 0 13 -90 62 -101 55 -5 -3 -9 3 -9 12 0 10 -3 15 -6 11 -3
-3 -18 5 -31 18 -14 13 -37 29 -52 37 -14 7 -28 16 -31 20 -3 3 -23 20 -45 37
-71 55 -92 74 -187 167 -104 102 -124 124 -188 209 -25 33 -47 62 -50 65 -3 3
-16 22 -30 42 -13 20 -29 34 -34 31 -5 -3 -6 -1 -2 5 9 15 -18 55 -29 44 -5
-4 -5 -2 -1 5 3 6 -7 35 -24 63 -16 28 -30 55 -30 60 0 6 -4 10 -10 10 -5 0
-10 7 -10 16 0 9 -5 12 -12 8 -7 -4 -8 -3 -4 5 4 7 -3 35 -17 64 -30 62 -95
234 -100 262 -5 29 -28 108 -34 119 -3 4 -7 25 -9 45 -2 20 -6 47 -8 61 -9 50
-19 136 -20 163 -1 15 -5 27 -10 27 -5 0 -3 6 3 13 6 8 9 16 6 18 -15 15 6
436 22 463 4 5 1 6 -5 2 -6 -3 -14 -1 -18 5 -4 7 -3 9 4 5 15 -9 19 1 27 64
10 87 14 113 20 138 10 43 13 60 19 93 3 19 10 49 15 68 6 19 8 37 6 42 -3 4
-1 9 5 11 5 1 11 19 12 40 2 20 6 34 11 31 6 -4 11 21 10 55 -1 6 3 12 8 12 5
0 9 11 9 24 0 14 5 28 11 32 6 3 9 15 6 25 -3 11 -2 17 2 14 11 -6 33 73 25
87 -4 6 -3 8 3 5 6 -4 18 14 28 41 9 26 48 110 85 187 37 77 68 144 68 149 0
5 7 13 16 18 9 5 16 14 16 20 0 6 7 19 16 29 8 9 16 23 18 31 1 7 9 22 18 33
10 11 31 39 47 61 l29 41 76 -2 c41 -1 81 2 88 6 7 4 17 4 23 0 5 -4 37 -7 70
-7z m-605 -148 c0 -2 -7 -7 -16 -10 -8 -3 -12 -2 -9 4 6 10 25 14 25 6z m3873
-121 c-3 -9 -8 -14 -10 -11 -3 3 -2 9 2 15 9 16 15 13 8 -4z m-32 -42 c13 -16
12 -17 -3 -4 -10 7 -18 15 -18 17 0 8 8 3 21 -13z m-3968 -38 c-3 -9 -8 -14
-10 -11 -3 3 -2 9 2 15 9 16 15 13 8 -4z m4085 -170 c-3 -3 -9 2 -12 12 -6 14
-5 15 5 6 7 -7 10 -15 7 -18z m-4277 -192 c13 -16 12 -17 -3 -4 -17 13 -22 21
-14 21 2 0 10 -8 17 -17z m-40 -120 c13 -16 12 -17 -3 -4 -17 13 -22 21 -14
21 2 0 10 -8 17 -17z m4369 -357 c0 -2 -8 -10 -17 -17 -16 -13 -17 -12 -4 4
13 16 21 21 21 13z m185 -126 c3 -5 1 -10 -4 -10 -6 0 -11 5 -11 10 0 6 2 10
4 10 3 0 8 -4 11 -10z m-4430 -40 c-3 -5 -12 -10 -18 -10 -7 0 -6 4 3 10 19
12 23 12 15 0z m4356 -37 c13 -16 12 -17 -3 -4 -10 7 -18 15 -18 17 0 8 8 3
21 -13z m-111 -197 c0 -2 -8 -10 -17 -17 -16 -13 -17 -12 -4 4 13 16 21 21 21
13z m-4480 -82 c0 -8 -19 -13 -24 -6 -3 5 1 9 9 9 8 0 15 -2 15 -3z m108 -209
c-3 -3 -9 2 -12 12 -6 14 -5 15 5 6 7 -7 10 -15 7 -18z m4363 -352 c13 -16 12
-17 -3 -4 -10 7 -18 15 -18 17 0 8 8 3 21 -13z m-4236 -83 c-3 -5 -12 -10 -18
-10 -7 0 -6 4 3 10 19 12 23 12 15 0z m81 -2 c3 -4 -1 -5 -10 -4 -8 1 -18 5
-22 8 -3 4 1 5 10 4 8 -1 18 -5 22 -8z m4272 -123 c-3 -3 -9 2 -12 12 -6 14
-5 15 5 6 7 -7 10 -15 7 -18z m-4278 -69 c0 -2 -7 -7 -16 -10 -8 -3 -12 -2 -9
4 6 10 25 14 25 6z m315 -454 c-3 -3 -11 0 -18 7 -9 10 -8 11 6 5 10 -3 15 -9
12 -12z m-80 -40 c-3 -3 -11 0 -18 7 -9 10 -8 11 6 5 10 -3 15 -9 12 -12z
m3519 -118 c3 -8 2 -12 -4 -9 -6 3 -10 10 -10 16 0 14 7 11 14 -7z m-3398 -34
c0 -12 -4 -16 -9 -11 -5 5 -6 14 -3 20 10 15 12 14 12 -9z m3159 -128 c-3 -3
-11 0 -18 7 -9 10 -8 11 6 5 10 -3 15 -9 12 -12z m-3037 -77 c-3 -3 -9 2 -12
12 -6 14 -5 15 5 6 7 -7 10 -15 7 -18z m75 10 c-3 -9 -8 -14 -10 -11 -3 3 -2
9 2 15 9 16 15 13 8 -4z m87 1 c0 -2 -7 -7 -16 -10 -8 -3 -12 -2 -9 4 6 10 25
14 25 6z m40 -30 c0 -2 -8 -10 -17 -17 -16 -13 -17 -12 -4 4 13 16 21 21 21
13z m1 -173 c13 -16 12 -17 -3 -4 -10 7 -18 15 -18 17 0 8 8 3 21 -13z m194
-51 c-3 -3 -11 0 -18 7 -9 10 -8 11 6 5 10 -3 15 -9 12 -12z m2003 -77 c-3 -3
-9 2 -12 12 -6 14 -5 15 5 6 7 -7 10 -15 7 -18z m-1838 11 c0 -2 -7 -7 -16
-10 -8 -3 -12 -2 -9 4 6 10 25 14 25 6z m240 0 c0 -2 -7 -7 -16 -10 -8 -3 -12
-2 -9 4 6 10 25 14 25 6z m1680 0 c0 -3 -4 -8 -10 -11 -5 -3 -10 -1 -10 4 0 6
5 11 10 11 6 0 10 -2 10 -4z m-1595 -86 c-3 -5 -12 -10 -18 -10 -7 0 -6 4 3
10 19 12 23 12 15 0z m66 -7 c13 -16 12 -17 -3 -4 -17 13 -22 21 -14 21 2 0
10 -8 17 -17z m849 -33 c0 -5 -5 -10 -11 -10 -5 0 -7 5 -4 10 3 6 8 10 11 10
2 0 4 -4 4 -10z m400 0 c0 -5 -2 -10 -4 -10 -3 0 -8 5 -11 10 -3 6 -1 10 4 10
6 0 11 -4 11 -10z m-599 -77 c13 -16 12 -17 -3 -4 -17 13 -22 21 -14 21 2 0
10 -8 17 -17z m353 -9 c3 -8 2 -12 -4 -9 -6 3 -10 10 -10 16 0 14 7 11 14 -7z
m397 -7 c-10 -9 -11 -8 -5 6 3 10 9 15 12 12 3 -3 0 -11 -7 -18z m-1270 -64
c13 -16 12 -17 -3 -4 -17 13 -22 21 -14 21 2 0 10 -8 17 -17z m552 -158 c-3
-9 -8 -14 -10 -11 -3 3 -2 9 2 15 9 16 15 13 8 -4z m-117 -331 c1 -9 0 -13 -4
-10 -3 4 -7 14 -8 22 -1 9 0 13 4 10 3 -4 7 -14 8 -22z m174 -108 c0 -2 -8
-10 -17 -17 -16 -13 -17 -12 -4 4 13 16 21 21 21 13z m-210 -190 c0 -2 -8 -10
-17 -17 -16 -13 -17 -12 -4 4 13 16 21 21 21 13z m120 -380 c-7 -7 -13 -7 -20
0 -6 6 -3 10 10 10 13 0 16 -4 10 -10z m-49 -49 c-10 -9 -11 -8 -5 6 3 10 9
15 12 12 3 -3 0 -11 -7 -18z m-36 -355 c-3 -3 -11 0 -18 7 -9 10 -8 11 6 5 10
-3 15 -9 12 -12z m-82 -67 c-3 -9 -8 -14 -10 -11 -3 3 -2 9 2 15 9 16 15 13 8
-4z m-193 -125 c0 -5 -5 -10 -11 -10 -5 0 -7 5 -4 10 3 6 8 10 11 10 2 0 4 -4
4 -10z m285 -120 c-3 -5 -12 -10 -18 -10 -7 0 -6 4 3 10 19 12 23 12 15 0z
m75 -4 c-7 -7 -13 -7 -20 0 -6 6 -3 10 10 10 13 0 16 -4 10 -10z m75 -4 c-3
-3 -11 0 -18 7 -9 10 -8 11 6 5 10 -3 15 -9 12 -12z m-201 -42 c-6 -6 -10 -3
-10 10 0 13 4 16 10 10 7 -7 7 -13 0 -20z m320 -76 c3 -8 2 -12 -4 -9 -6 3
-10 10 -10 16 0 14 7 11 14 -7z m-599 -42 c-3 -3 -11 0 -18 7 -9 10 -8 11 6 5
10 -3 15 -9 12 -12z m876 1 c13 -16 12 -17 -3 -4 -17 13 -22 21 -14 21 2 0 10
-8 17 -17z m-1306 -33 c-3 -5 -12 -10 -18 -10 -7 0 -6 4 3 10 19 12 23 12 15
0z m1395 -34 c0 -2 -7 -7 -16 -10 -8 -3 -12 -2 -9 4 6 10 25 14 25 6z m-1722
-51 c-3 -3 -9 2 -12 12 -6 14 -5 15 5 6 7 -7 10 -15 7 -18z m556 -1 c3 -8 2
-12 -4 -9 -6 3 -10 10 -10 16 0 14 7 11 14 -7z m-39 -42 c-3 -3 -11 0 -18 7
-9 10 -8 11 6 5 10 -3 15 -9 12 -12z m480 0 c-3 -3 -11 0 -18 7 -9 10 -8 11 6
5 10 -3 15 -9 12 -12z m1210 8 c-3 -5 -12 -10 -18 -10 -7 0 -6 4 3 10 19 12
23 12 15 0z m81 -2 c3 -4 -1 -5 -10 -4 -8 1 -18 5 -22 8 -3 4 1 5 10 4 8 -1
18 -5 22 -8z m-773 -33 c-3 -9 -8 -14 -10 -11 -3 3 -2 9 2 15 9 16 15 13 8 -4z
m565 -10 c-3 -3 -9 2 -12 12 -6 14 -5 15 5 6 7 -7 10 -15 7 -18z m-1518 6 c0
-6 -4 -12 -8 -15 -5 -3 -9 1 -9 9 0 8 4 15 9 15 4 0 8 -4 8 -9z"/>
<path d="M4910 4817 c-3 -3 -43 -8 -90 -11 -195 -15 -377 -45 -901 -150 -261
-52 -487 -97 -504 -100 -94 -16 -348 -56 -395 -62 -280 -34 -702 -39 -905 -11
-173 25 -183 27 -324 63 -74 19 -136 33 -138 31 -1 -2 1 -28 7 -58 5 -30 11
-65 14 -79 53 -298 239 -650 470 -890 319 -332 675 -515 1139 -586 73 -11 331
-10 430 2 615 75 1170 463 1459 1021 118 228 180 453 194 699 6 103 5 111 -12
119 -20 8 -436 19 -444 12z"/>
</g>
</svg>
